{
  "accessors": [
    {
      "bufferView": 1,
      "componentType": 5126,
      "count": 680,
      "max": [
        0.074985601007938385,
        0.12487821280956268,
        0.22949704527854919
      ],
      "min": [
        -0.074985571205615997,
        -0.1058194562792778,
        0.0010045692324638367
      ],
      "type": "VEC3"
    },
    {
      "bufferView": 1,
      "byteOffset": 8160,
      "componentType": 5126,
      "count": 680,
      "max": [
        0.99849206209182739,
        0.97248023748397827,
        0.99871826171875
      ],
      "min": [
        -0.99849206209182739,
        -0.99104338884353638,
        -0.99402457475662231
      ],
      "type": "VEC3"
    },
    {
      "bufferView": 0,
      "componentType": 5125,
      "count": 996,
      "max": [
        679
      ],
      "min": [
        0
      ],
      "type": "SCALAR"
    }
  ],
  "asset": {
    "extras": {
      "author": "monochroma380 (https://sketchfab.com/monochroma380)",
      "license": "CC-BY-4.0 (http://creativecommons.org/licenses/by/4.0/)",
      "source": "https://sketchfab.com/models/159b3666d6d749dba0cfeb3ba3a2134d",
      "title": "Human Head Base Mesh"
    },
    "generator": "Sketchfab-3.37.3",
    "version": "2.0"
  },
  "bufferViews": [
    {
      "buffer": 0,
      "byteLength": 3984,
      "byteOffset": 0,
      "name": "floatBufferViews",
      "target": 34963
    },
    {
      "buffer": 0,
      "byteLength": 16320,
      "byteOffset": 3984,
      "byteStride": 12,
      "name": "floatBufferViews",
      "target": 34962
    }
  ],
  "buffers": [
    {
      "byteLength": 20304,
      "uri": "scene.bin"
    }
  ],
  "materials": [
    {
      "doubleSided": true,
      "name": "Scene_-_Root",
      "pbrMetallicRoughness": {
        "baseColorFactor": [
          1,
          1,
          1,
          1
        ],
        "metallicFactor": 0,
        "roughnessFactor": 0.59999999999999998
      }
    }
  ],
  "meshes": [
    {
      "name": "human_head_base_mesh_1__0",
      "primitives": [
        {
          "attributes": {
            "NORMAL": 1,
            "POSITION": 0
          },
          "indices": 2,
          "material": 0,
          "mode": 4
        }
      ]
    }
  ],
  "nodes": [
    {
      "children": [
        1
      ],
      "name": "RootNode (gltf orientation matrix)",
      "rotation": [
        -0.70710678118654746,
        -0,
        -0,
        0.70710678118654757
      ]
    },
    {
      "children": [
        2
      ],
      "name": "RootNode (model correction matrix)"
    },
    {
      "children": [
        3
      ],
      "matrix": [
        1,
        0,
        0,
        0,
        0,
        0,
        1,
        0,
        0,
        -1,
        0,
        0,
        0,
        0,
        0,
        1
      ],
      "name": "19d815b5e3d54007b56b6c914802f7f8.fbx"
    },
    {
      "children": [
        4
      ],
      "name": "RootNode"
    },
    {
      "children": [
        5
      ],
      "matrix": [
        100,
        0,
        0,
        0,
        0,
        -1.6292067939183141e-05,
        -99.999999999998678,
        0,
        0,
        99.999999999998678,
        -1.6292067939183141e-05,
        0,
        0,
        0,
        0,
        1
      ],
      "name": "human_head_base_mesh_1"
    },
    {
      "mesh": 0,
      "name": "human_head_base_mesh_1__0"
    }
  ],
  "scene": 0,
  "scenes": [
    {
      "name": "OSG_Scene",
      "nodes": [
        0
      ]
    }
  ]
}

